<svg xmlns="http://www.w3.org/2000/svg" xmlns:xlink="http://www.w3.org/1999/xlink" viewBox="0 0 32 32"><defs><style>.cls-1{fill:url(#Degradado_sin_nombre_40);}.cls-2{fill:url(#Degradado_sin_nombre_39);}</style><linearGradient id="Degradado_sin_nombre_40" x1="22.89" y1="30.75" x2="17.32" y2="12.83" gradientUnits="userSpaceOnUse"><stop offset="0" stop-color="#1dffd4"/><stop offset="1" stop-color="#50a8ff"/></linearGradient><linearGradient id="Degradado_sin_nombre_39" x1="6.22" y1="14.33" x2="22.56" y2="17.6" xlink:href="#Degradado_sin_nombre_40"/></defs><g id="Capa_4_copia_5" data-name="Capa 4 copia 5"><path class="cls-1" d="M24.46,12.44a2,2,0,0,0,.73.13,2.14,2.14,0,1,0-2.14-2.14,2.33,2.33,0,0,0,.08.59l-6.86,6.92V15.23a2.28,2.28,0,1,0-3.11-3,2.25,2.25,0,0,0-.23,1,2.29,2.29,0,0,0,1.28,2.05v5.9L13,20a2.24,2.24,0,0,0,.12-.73,2.29,2.29,0,1,0-2.28,2.29,2.31,2.31,0,0,0,.83-.16L14.19,24l.05,6.68h.12c.24,0,.5,0,.75,0A10.46,10.46,0,0,0,25.55,20.27a10.33,10.33,0,0,0-.48-3.13,10.1,10.1,0,0,0-1.19-2.53l-.09-.14-1.71,1.71.05.09a8,8,0,0,1,1.06,4,8.1,8.1,0,0,1-6.92,8v-7.4ZM10.85,20.05a.8.8,0,0,1-.8-.8.79.79,0,0,1,.8-.79.79.79,0,0,1,.79.79A.79.79,0,0,1,10.85,20.05ZM15.22,14a.8.8,0,1,1,0-1.6.8.8,0,0,1,0,1.6Z"/><path class="cls-2" d="M21.33,11.75l-1.7,1.7-.09-.1A20.29,20.29,0,0,1,17,10.24,20.65,20.65,0,0,1,15.1,6.61a20.2,20.2,0,0,1-1.89,3.63,21.16,21.16,0,0,1-3,3.58h0a7.59,7.59,0,0,0-1,.93,8.08,8.08,0,0,0,4.16,13.41l.11,0v2.4l-.16,0A10.44,10.44,0,0,1,4.67,20.27a10.29,10.29,0,0,1,.46-3.07,10.54,10.54,0,0,1,2.32-4h0l0,0c.2-.18.39-.37.57-.56l0,0h0a30,30,0,0,0,6.07-8.93c.29-.65.56-1.31.8-2l.12-.35.13.35c.24.68.51,1.35.8,2a29.83,29.83,0,0,0,5.23,8Z"/></g></svg>